<svg version="1.1" viewBox="0.0 0.0 960.0 540.0" fill="none" stroke="none" stroke-linecap="square" stroke-miterlimit="10" xmlns:xlink="http://www.w3.org/1999/xlink" xmlns="http://www.w3.org/2000/svg"><clipPath id="g13c7baf195f_0_0.0"><path d="m0 0l960.0 0l0 540.0l-960.0 0l0 -540.0z" clip-rule="nonzero"/></clipPath><g clip-path="url(#g13c7baf195f_0_0.0)"><path fill="#ffffff" d="m0 0l960.0 0l0 540.0l-960.0 0z" fill-rule="evenodd"/><path fill="#000000" fill-opacity="0.0" d="m276.22903 205.6404l0 0c0 -112.083374 90.86151 -202.94489 202.94489 -202.94489l0 0c53.82431 0 105.44418 21.381632 143.5037 59.44118c38.05957 38.059547 59.441162 89.67937 59.441162 143.50371l0 0c0 112.08336 -90.86151 202.94487 -202.94485 202.94487l0 0c-112.083374 0 -202.94489 -90.86151 -202.94489 -202.94487z" fill-rule="evenodd"/><path stroke="#5e696c" stroke-width="1.0" stroke-linejoin="round" stroke-linecap="butt" d="m276.22903 205.6404l0 0c0 -112.083374 90.86151 -202.94489 202.94489 -202.94489l0 0c53.82431 0 105.44418 21.381632 143.5037 59.44118c38.05957 38.059547 59.441162 89.67937 59.441162 143.50371l0 0c0 112.08336 -90.86151 202.94487 -202.94485 202.94487l0 0c-112.083374 0 -202.94489 -90.86151 -202.94489 -202.94487z" fill-rule="evenodd"/><path fill="#000000" fill-opacity="0.0" d="m162.83728 334.75543l0 0c0 -112.09204 90.868576 -202.96062 202.96063 -202.96062l0 0c53.82852 0 105.45233 21.383286 143.51483 59.445786c38.0625 38.062515 59.4458 89.68634 59.4458 143.51483l0 0c0 112.09207 -90.86856 202.96063 -202.96063 202.96063l0 0c-112.09206 0 -202.96063 -90.86856 -202.96063 -202.96063z" fill-rule="evenodd"/><path stroke="#5e696c" stroke-width="1.0" stroke-linejoin="round" stroke-linecap="butt" d="m162.83728 334.75543l0 0c0 -112.09204 90.868576 -202.96062 202.96063 -202.96062l0 0c53.82852 0 105.45233 21.383286 143.51483 59.445786c38.0625 38.062515 59.4458 89.68634 59.4458 143.51483l0 0c0 112.09207 -90.86856 202.96063 -202.96063 202.96063l0 0c-112.09206 0 -202.96063 -90.86856 -202.96063 -202.96063z" fill-rule="evenodd"/><path fill="#000000" fill-opacity="0.0" d="m385.5122 334.75543l0 0c0 -112.09204 90.86856 -202.96062 202.96063 -202.96062l0 0c53.82849 0 105.45233 21.383286 143.51483 59.445786c38.0625 38.062515 59.4458 89.68634 59.4458 143.51483l0 0c0 112.09207 -90.86859 202.96063 -202.96063 202.96063l0 0c-112.09207 0 -202.96063 -90.86856 -202.96063 -202.96063z" fill-rule="evenodd"/><path stroke="#5e696c" stroke-width="1.0" stroke-linejoin="round" stroke-linecap="butt" d="m385.5122 334.75543l0 0c0 -112.09204 90.86856 -202.96062 202.96063 -202.96062l0 0c53.82849 0 105.45233 21.383286 143.51483 59.445786c38.0625 38.062515 59.4458 89.68634 59.4458 143.51483l0 0c0 112.09207 -90.86859 202.96063 -202.96063 202.96063l0 0c-112.09207 0 -202.96063 -90.86856 -202.96063 -202.96063z" fill-rule="evenodd"/><path fill="#000000" fill-opacity="0.0" d="m323.53812 61.89501l309.5118 0l0 111.65354l-309.5118 0z" fill-rule="evenodd"/><path fill="#5e696c" d="m438.0692 77.229385l0 2.84375l-8.53125 0l0 5.34375l6.71875 0l0 2.765625l-6.71875 0l0 5.453125l8.53125 0l0 2.859375l-12.140625 0l0 -19.265625l12.140625 0zm12.541901 19.265625q-0.625 0 -0.828125 -0.59375l-0.265625 -1.328125q-0.4375 0.484375 -0.90625 0.875q-0.453125 0.375 -1.0 0.65625q-0.53125 0.28125 -1.15625 0.4375q-0.625 0.15625 -1.34375 0.15625q-1.109375 0 -2.046875 -0.46875q-0.9375 -0.46875 -1.609375 -1.34375q-0.671875 -0.890625 -1.046875 -2.203125q-0.359375 -1.3125 -0.359375 -2.984375q0 -1.515625 0.40625 -2.8125q0.421875 -1.3125 1.1875 -2.265625q0.78125 -0.96875 1.859375 -1.5q1.078125 -0.546875 2.421875 -0.546875q1.15625 0 1.96875 0.375q0.8125 0.359375 1.453125 0.96875l0 -7.234375l3.28125 0l0 19.8125l-2.015625 0zm-4.375 -2.40625q1.03125 0 1.75 -0.421875q0.71875 -0.4375 1.359375 -1.21875l0 -6.140625q-0.5625 -0.671875 -1.234375 -0.953125q-0.65625 -0.28125 -1.40625 -0.28125q-0.75 0 -1.359375 0.28125q-0.609375 0.28125 -1.03125 0.84375q-0.40625 0.5625 -0.640625 1.4375q-0.21875 0.875 -0.21875 2.0625q0 1.203125 0.1875 2.03125q0.1875 0.828125 0.546875 1.359375q0.359375 0.53125 0.875 0.765625q0.53125 0.234375 1.171875 0.234375zm12.959625 -11.265625l0 8.6875q0 1.25 0.578125 1.9375q0.59375 0.6875 1.75 0.6875q0.84375 0 1.59375 -0.375q0.75 -0.390625 1.421875 -1.046875l0 -9.890625l3.28125 0l0 13.671875l-2.015625 0q-0.625 0 -0.828125 -0.59375l-0.234375 -1.09375q-0.421875 0.421875 -0.875 0.78125q-0.453125 0.34375 -0.96875 0.59375q-0.515625 0.25 -1.109375 0.390625q-0.59375 0.140625 -1.265625 0.140625q-1.125 0 -1.984375 -0.375q-0.859375 -0.390625 -1.453125 -1.078125q-0.578125 -0.703125 -0.875 -1.65625q-0.296875 -0.953125 -0.296875 -2.09375l0 -8.6875l3.28125 0zm21.763397 2.890625q-0.15625 0.1875 -0.296875 0.296875q-0.140625 0.109375 -0.40625 0.109375q-0.25 0 -0.5 -0.15625q-0.234375 -0.15625 -0.5625 -0.34375q-0.328125 -0.203125 -0.796875 -0.34375q-0.453125 -0.15625 -1.140625 -0.15625q-0.859375 0 -1.515625 0.3125q-0.65625 0.3125 -1.09375 0.90625q-0.421875 0.578125 -0.640625 1.40625q-0.203125 0.828125 -0.203125 1.890625q0 1.09375 0.21875 1.953125q0.234375 0.84375 0.671875 1.421875q0.453125 0.578125 1.078125 0.875q0.625 0.296875 1.40625 0.296875q0.796875 0 1.28125 -0.1875q0.484375 -0.1875 0.8125 -0.421875q0.328125 -0.234375 0.578125 -0.421875q0.25 -0.203125 0.5625 -0.203125q0.390625 0 0.59375 0.3125l0.953125 1.1875q-0.546875 0.640625 -1.1875 1.078125q-0.640625 0.4375 -1.328125 0.703125q-0.6875 0.25 -1.421875 0.359375q-0.734375 0.109375 -1.453125 0.109375q-1.265625 0 -2.390625 -0.46875q-1.109375 -0.484375 -1.953125 -1.390625q-0.828125 -0.90625 -1.3125 -2.21875q-0.484375 -1.3125 -0.484375 -2.984375q0 -1.515625 0.421875 -2.796875q0.4375 -1.28125 1.28125 -2.21875q0.84375 -0.953125 2.078125 -1.484375q1.234375 -0.53125 2.859375 -0.53125q1.53125 0 2.671875 0.5q1.15625 0.484375 2.078125 1.40625l-0.859375 1.203125zm13.808716 10.78125l-1.46875 0q-0.46875 0 -0.734375 -0.140625q-0.265625 -0.140625 -0.40625 -0.5625l-0.296875 -0.96875q-0.515625 0.453125 -1.015625 0.8125q-0.5 0.359375 -1.03125 0.59375q-0.53125 0.234375 -1.140625 0.359375q-0.59375 0.125 -1.328125 0.125q-0.859375 0 -1.59375 -0.234375q-0.734375 -0.234375 -1.265625 -0.703125q-0.515625 -0.46875 -0.8125 -1.15625q-0.296875 -0.703125 -0.296875 -1.609375q0 -0.78125 0.40625 -1.53125q0.40625 -0.75 1.34375 -1.359375q0.953125 -0.609375 2.53125 -1.0q1.578125 -0.40625 3.90625 -0.46875l0 -0.796875q0 -1.375 -0.578125 -2.03125q-0.578125 -0.65625 -1.6875 -0.65625q-0.796875 0 -1.34375 0.1875q-0.53125 0.1875 -0.921875 0.421875q-0.390625 0.234375 -0.734375 0.421875q-0.328125 0.1875 -0.71875 0.1875q-0.328125 0 -0.578125 -0.171875q-0.234375 -0.1875 -0.390625 -0.4375l-0.59375 -1.046875q2.359375 -2.15625 5.6875 -2.15625q1.203125 0 2.140625 0.390625q0.9375 0.390625 1.59375 1.09375q0.65625 0.703125 0.984375 1.671875q0.34375 0.96875 0.34375 2.125l0 8.640625zm-6.390625 -2.046875q0.5 0 0.921875 -0.09375q0.4375 -0.09375 0.8125 -0.28125q0.390625 -0.1875 0.734375 -0.453125q0.359375 -0.28125 0.71875 -0.65625l0 -2.3125q-1.4375 0.078125 -2.40625 0.265625q-0.96875 0.171875 -1.5625 0.453125q-0.578125 0.28125 -0.828125 0.65625q-0.25 0.359375 -0.25 0.796875q0 0.875 0.515625 1.25q0.515625 0.375 1.34375 0.375zm14.126373 2.265625q-1.765625 0 -2.734375 -1.0q-0.953125 -1.015625 -0.953125 -2.796875l0 -7.625l-1.390625 0q-0.265625 0 -0.46875 -0.171875q-0.1875 -0.1875 -0.1875 -0.53125l0 -1.296875l2.203125 -0.359375l0.6875 -3.734375q0.0625 -0.265625 0.25 -0.40625q0.203125 -0.15625 0.484375 -0.15625l1.703125 0l0 4.3125l3.609375 0l0 2.34375l-3.609375 0l0 7.40625q0 0.640625 0.3125 1.0q0.328125 0.359375 0.875 0.359375q0.296875 0 0.5 -0.0625q0.21875 -0.078125 0.359375 -0.15625q0.15625 -0.09375 0.28125 -0.15625q0.125 -0.078125 0.234375 -0.078125q0.15625 0 0.25 0.078125q0.09375 0.0625 0.1875 0.21875l1.0 1.59375q-0.734375 0.59375 -1.671875 0.90625q-0.921875 0.3125 -1.921875 0.3125zm11.659668 -14.109375q1.53125 0 2.78125 0.5q1.25 0.484375 2.125 1.390625q0.875 0.90625 1.359375 2.21875q0.484375 1.296875 0.484375 2.921875q0 1.625 -0.484375 2.9375q-0.484375 1.296875 -1.359375 2.21875q-0.875 0.921875 -2.125 1.421875q-1.25 0.484375 -2.78125 0.484375q-1.53125 0 -2.7812195 -0.484375q-1.25 -0.5 -2.140625 -1.421875q-0.890625 -0.921875 -1.375 -2.21875q-0.484375 -1.3125 -0.484375 -2.9375q0 -1.625 0.484375 -2.921875q0.484375 -1.3125 1.375 -2.21875q0.890625 -0.90625 2.140625 -1.390625q1.2499695 -0.5 2.7812195 -0.5zm0 11.5625q1.703125 0 2.515625 -1.140625q0.828125 -1.15625 0.828125 -3.375q0 -2.203125 -0.828125 -3.359375q-0.8125 -1.171875 -2.515625 -1.171875q-1.734375 0 -2.5624695 1.171875q-0.8125 1.171875 -0.8125 3.359375q0 2.203125 0.8125 3.359375q0.8280945 1.15625 2.5624695 1.15625zm9.325928 2.328125l0 -13.671875l1.921875 0q0.515625 0 0.703125 0.1875q0.203125 0.1875 0.28125 0.640625l0.1875 1.640625q0.734375 -1.265625 1.71875 -1.984375q1.0 -0.734375 2.21875 -0.734375q1.015625 0 1.671875 0.453125l-0.421875 2.46875q-0.03125 0.25 -0.171875 0.34375q-0.125 0.09375 -0.359375 0.09375q-0.203125 0 -0.546875 -0.09375q-0.34375 -0.09375 -0.921875 -0.09375q-1.015625 0 -1.75 0.578125q-0.734375 0.5625 -1.25 1.65625l0 8.515625l-3.28125 0z" fill-rule="nonzero"/><path fill="#000000" fill-opacity="0.0" d="m186.19984 353.84625l166.67717 0l0 81.29135l-166.67717 0z" fill-rule="evenodd"/><path fill="#5e696c" d="m207.46806 380.915l0 7.53125l-3.59375 0l0 -19.265625l5.875 0q1.984375 0 3.390625 0.40625q1.40625 0.40625 2.296875 1.140625q0.90625 0.71875 1.328125 1.75q0.421875 1.015625 0.421875 2.234375q0 0.984375 -0.296875 1.859375q-0.28125 0.859375 -0.828125 1.5625q-0.53125 0.703125 -1.328125 1.234375q-0.796875 0.53125 -1.8125 0.859375q0.6875 0.375 1.171875 1.09375l4.828125 7.125l-3.21875 0q-0.46875 0 -0.796875 -0.1875q-0.328125 -0.1875 -0.546875 -0.53125l-4.0625 -6.171875q-0.21875 -0.34375 -0.5 -0.484375q-0.265625 -0.15625 -0.796875 -0.15625l-1.53125 0zm0 -2.578125l2.234375 0q1.015625 0 1.765625 -0.25q0.75 -0.25 1.234375 -0.6875q0.484375 -0.453125 0.71875 -1.0625q0.25 -0.625 0.25 -1.359375q0 -1.453125 -0.96875 -2.234375q-0.96875 -0.796875 -2.953125 -0.796875l-2.28125 0l0 6.390625zm19.209778 -3.78125q1.296875 0 2.375 0.421875q1.09375 0.40625 1.875 1.203125q0.796875 0.796875 1.234375 1.953125q0.4375 1.140625 0.4375 2.625q0 0.375 -0.03125 0.625q-0.03125 0.234375 -0.125 0.375q-0.078125 0.140625 -0.234375 0.203125q-0.140625 0.0625 -0.375 0.0625l-8.4375 0q0.140625 2.109375 1.125 3.09375q0.984375 0.984375 2.609375 0.984375q0.796875 0 1.375 -0.1875q0.59375 -0.1875 1.015625 -0.40625q0.4375 -0.234375 0.765625 -0.421875q0.328125 -0.1875 0.640625 -0.1875q0.1875 0 0.328125 0.078125q0.15625 0.078125 0.265625 0.234375l0.953125 1.1875q-0.546875 0.640625 -1.234375 1.078125q-0.671875 0.4375 -1.40625 0.703125q-0.734375 0.25 -1.5 0.359375q-0.765625 0.109375 -1.484375 0.109375q-1.4375 0 -2.671875 -0.46875q-1.21875 -0.484375 -2.125 -1.40625q-0.90625 -0.921875 -1.421875 -2.28125q-0.515625 -1.375 -0.515625 -3.171875q0 -1.40625 0.453125 -2.640625q0.453125 -1.234375 1.296875 -2.140625q0.84375 -0.921875 2.0625 -1.453125q1.21875 -0.53125 2.75 -0.53125zm0.078125 2.359375q-1.453125 0 -2.265625 0.8125q-0.8125 0.8125 -1.03125 2.3125l6.1875 0q0 -0.640625 -0.1875 -1.203125q-0.171875 -0.578125 -0.53125 -1.0q-0.359375 -0.421875 -0.90625 -0.671875q-0.546875 -0.25 -1.265625 -0.25zm16.638336 0.515625q-0.125 0.21875 -0.28125 0.3125q-0.140625 0.078125 -0.375 0.078125q-0.234375 0 -0.515625 -0.125q-0.265625 -0.140625 -0.625 -0.296875q-0.359375 -0.171875 -0.828125 -0.296875q-0.453125 -0.140625 -1.078125 -0.140625q-0.96875 0 -1.53125 0.421875q-0.5625 0.40625 -0.5625 1.0625q0 0.4375 0.28125 0.75q0.296875 0.296875 0.765625 0.53125q0.46875 0.21875 1.0625 0.40625q0.609375 0.171875 1.234375 0.390625q0.625 0.203125 1.21875 0.484375q0.609375 0.265625 1.078125 0.6875q0.484375 0.421875 0.765625 1.015625q0.28125 0.578125 0.28125 1.40625q0 0.984375 -0.359375 1.828125q-0.359375 0.828125 -1.0625 1.4375q-0.6875 0.59375 -1.703125 0.9375q-1.015625 0.34375 -2.34375 0.34375q-0.703125 0 -1.375 -0.140625q-0.671875 -0.125 -1.296875 -0.34375q-0.609375 -0.234375 -1.140625 -0.53125q-0.53125 -0.3125 -0.921875 -0.671875l0.75 -1.25q0.15625 -0.234375 0.34375 -0.34375q0.203125 -0.125 0.515625 -0.125q0.3125 0 0.578125 0.171875q0.28125 0.171875 0.640625 0.375q0.359375 0.203125 0.84375 0.375q0.484375 0.171875 1.234375 0.171875q0.578125 0 1.0 -0.140625q0.421875 -0.140625 0.6875 -0.359375q0.28125 -0.234375 0.40625 -0.53125q0.125 -0.296875 0.125 -0.625q0 -0.46875 -0.28125 -0.78125q-0.28125 -0.3125 -0.765625 -0.53125q-0.46875 -0.234375 -1.078125 -0.40625q-0.609375 -0.1875 -1.25 -0.390625q-0.625 -0.21875 -1.234375 -0.5q-0.59375 -0.296875 -1.078125 -0.734375q-0.46875 -0.4375 -0.765625 -1.078125q-0.28125 -0.640625 -0.28125 -1.546875q0 -0.84375 0.328125 -1.59375q0.34375 -0.765625 0.984375 -1.328125q0.65625 -0.5625 1.609375 -0.90625q0.96875 -0.34375 2.25 -0.34375q1.40625 0 2.5625 0.46875q1.15625 0.46875 1.9375 1.234375l-0.75 1.171875zm9.179993 -2.875q1.296875 0 2.375 0.421875q1.0937347 0.40625 1.8749847 1.203125q0.796875 0.796875 1.234375 1.953125q0.4375 1.140625 0.4375 2.625q0 0.375 -0.03125 0.625q-0.03125 0.234375 -0.125 0.375q-0.078125 0.140625 -0.234375 0.203125q-0.140625 0.0625 -0.375 0.0625l-8.437485 0q0.140625 2.109375 1.125 3.09375q0.984375 0.984375 2.609375 0.984375q0.796875 0 1.375 -0.1875q0.59375 -0.1875 1.015625 -0.40625q0.4375 -0.234375 0.76560974 -0.421875q0.328125 -0.1875 0.640625 -0.1875q0.1875 0 0.328125 0.078125q0.15625 0.078125 0.265625 0.234375l0.953125 1.1875q-0.546875 0.640625 -1.234375 1.078125q-0.671875 0.4375 -1.4062347 0.703125q-0.734375 0.25 -1.5 0.359375q-0.765625 0.109375 -1.484375 0.109375q-1.4375 0 -2.671875 -0.46875q-1.21875 -0.484375 -2.125 -1.40625q-0.90625 -0.921875 -1.421875 -2.28125q-0.515625 -1.375 -0.515625 -3.171875q0 -1.40625 0.453125 -2.640625q0.453125 -1.234375 1.296875 -2.140625q0.84375 -0.921875 2.0625 -1.453125q1.21875 -0.53125 2.75 -0.53125zm0.078125 2.359375q-1.453125 0 -2.265625 0.8125q-0.8125 0.8125 -1.03125 2.3125l6.1875 0q0 -0.640625 -0.1875 -1.203125q-0.171875 -0.578125 -0.53125 -1.0q-0.359375 -0.421875 -0.90625 -0.671875q-0.546875 -0.25 -1.265625 -0.25zm19.23207 11.53125l-1.46875 0q-0.46875 0 -0.734375 -0.140625q-0.265625 -0.140625 -0.40625 -0.5625l-0.296875 -0.96875q-0.515625 0.453125 -1.015625 0.8125q-0.5 0.359375 -1.03125 0.59375q-0.53125 0.234375 -1.140625 0.359375q-0.59375 0.125 -1.328125 0.125q-0.859375 0 -1.59375 -0.234375q-0.734375 -0.234375 -1.265625 -0.703125q-0.515625 -0.46875 -0.8125 -1.15625q-0.296875 -0.703125 -0.296875 -1.609375q0 -0.78125 0.40625 -1.53125q0.40625 -0.75 1.34375 -1.359375q0.953125 -0.609375 2.53125 -1.0q1.578125 -0.40625 3.90625 -0.46875l0 -0.796875q0 -1.375 -0.578125 -2.03125q-0.578125 -0.65625 -1.6875 -0.65625q-0.796875 0 -1.34375 0.1875q-0.53125 0.1875 -0.921875 0.421875q-0.390625 0.234375 -0.734375 0.421875q-0.328125 0.1875 -0.71875 0.1875q-0.328125 0 -0.578125 -0.171875q-0.234375 -0.1875 -0.390625 -0.4375l-0.59375 -1.046875q2.359375 -2.15625 5.6875 -2.15625q1.203125 0 2.140625 0.390625q0.9375 0.390625 1.59375 1.09375q0.65625 0.703125 0.984375 1.671875q0.34375 0.96875 0.34375 2.125l0 8.640625zm-6.390625 -2.046875q0.5 0 0.921875 -0.09375q0.4375 -0.09375 0.8125 -0.28125q0.390625 -0.1875 0.734375 -0.453125q0.359375 -0.28125 0.71875 -0.65625l0 -2.3125q-1.4375 0.078125 -2.40625 0.265625q-0.96875 0.171875 -1.5625 0.453125q-0.578125 0.28125 -0.828125 0.65625q-0.25 0.359375 -0.25 0.796875q0 0.875 0.515625 1.25q0.515625 0.375 1.34375 0.375zm9.641998 2.046875l0 -13.671875l1.921875 0q0.515625 0 0.703125 0.1875q0.203125 0.1875 0.28125 0.640625l0.1875 1.640625q0.734375 -1.265625 1.71875 -1.984375q1.0 -0.734375 2.21875 -0.734375q1.015625 0 1.671875 0.453125l-0.421875 2.46875q-0.03125 0.25 -0.171875 0.34375q-0.125 0.09375 -0.359375 0.09375q-0.203125 0 -0.546875 -0.09375q-0.34375 -0.09375 -0.921875 -0.09375q-1.015625 0 -1.75 0.578125q-0.734375 0.5625 -1.25 1.65625l0 8.515625l-3.28125 0zm20.498413 -10.78125q-0.15625 0.1875 -0.296875 0.296875q-0.140625 0.109375 -0.40625 0.109375q-0.25 0 -0.5 -0.15625q-0.234375 -0.15625 -0.5625 -0.34375q-0.328125 -0.203125 -0.796875 -0.34375q-0.453125 -0.15625 -1.140625 -0.15625q-0.859375 0 -1.515625 0.3125q-0.65625 0.3125 -1.09375 0.90625q-0.421875 0.578125 -0.640625 1.40625q-0.203125 0.828125 -0.203125 1.890625q0 1.09375 0.21875 1.953125q0.234375 0.84375 0.671875 1.421875q0.453125 0.578125 1.078125 0.875q0.625 0.296875 1.40625 0.296875q0.796875 0 1.28125 -0.1875q0.484375 -0.1875 0.8125 -0.421875q0.328125 -0.234375 0.578125 -0.421875q0.25 -0.203125 0.5625 -0.203125q0.390625 0 0.59375 0.3125l0.953125 1.1875q-0.546875 0.640625 -1.1875 1.078125q-0.640625 0.4375 -1.328125 0.703125q-0.6875 0.25 -1.421875 0.359375q-0.734375 0.109375 -1.453125 0.109375q-1.265625 0 -2.390625 -0.46875q-1.109375 -0.484375 -1.953125 -1.390625q-0.828125 -0.90625 -1.3125 -2.21875q-0.484375 -1.3125 -0.484375 -2.984375q0 -1.515625 0.421875 -2.796875q0.4375 -1.28125 1.28125 -2.21875q0.84375 -0.953125 2.078125 -1.484375q1.234375 -0.53125 2.859375 -0.53125q1.53125 0 2.671875 0.5q1.15625 0.484375 2.078125 1.40625l-0.859375 1.203125zm3.1056213 10.78125l0 -19.8125l3.28125 0l0 7.625q0.796875 -0.765625 1.75 -1.234375q0.96875 -0.46875 2.265625 -0.46875q1.125 0 1.984375 0.390625q0.875 0.375 1.453125 1.0625q0.578125 0.6875 0.875 1.640625q0.296875 0.953125 0.296875 2.09375l0 8.703125l-3.296875 0l0 -8.703125q0 -1.25 -0.578125 -1.9375q-0.578125 -0.6875 -1.734375 -0.6875q-0.859375 0 -1.609375 0.390625q-0.734375 0.375 -1.40625 1.046875l0 9.890625l-3.28125 0zm20.794647 -13.890625q1.296875 0 2.375 0.421875q1.09375 0.40625 1.875 1.203125q0.796875 0.796875 1.234375 1.953125q0.4375 1.140625 0.4375 2.625q0 0.375 -0.03125 0.625q-0.03125 0.234375 -0.125 0.375q-0.078125 0.140625 -0.234375 0.203125q-0.140625 0.0625 -0.375 0.0625l-8.4375 0q0.140625 2.109375 1.125 3.09375q0.984375 0.984375 2.609375 0.984375q0.796875 0 1.375 -0.1875q0.59375 -0.1875 1.015625 -0.40625q0.4375 -0.234375 0.765625 -0.421875q0.328125 -0.1875 0.640625 -0.1875q0.1875 0 0.328125 0.078125q0.15625 0.078125 0.265625 0.234375l0.953125 1.1875q-0.546875 0.640625 -1.234375 1.078125q-0.671875 0.4375 -1.40625 0.703125q-0.734375 0.25 -1.5 0.359375q-0.765625 0.109375 -1.484375 0.109375q-1.4375 0 -2.671875 -0.46875q-1.21875 -0.484375 -2.125 -1.40625q-0.90625 -0.921875 -1.421875 -2.28125q-0.515625 -1.375 -0.515625 -3.171875q0 -1.40625 0.453125 -2.640625q0.453125 -1.234375 1.296875 -2.140625q0.84375 -0.921875 2.0625 -1.453125q1.21875 -0.53125 2.75 -0.53125zm0.078125 2.359375q-1.453125 0 -2.265625 0.8125q-0.8125 0.8125 -1.03125 2.3125l6.1875 0q0 -0.640625 -0.1875 -1.203125q-0.171875 -0.578125 -0.53125 -1.0q-0.359375 -0.421875 -0.90625 -0.671875q-0.546875 -0.25 -1.265625 -0.25zm8.528961 11.53125l0 -13.671875l1.921875 0q0.515625 0 0.703125 0.1875q0.203125 0.1875 0.28125 0.640625l0.1875 1.640625q0.734375 -1.265625 1.71875 -1.984375q1.0 -0.734375 2.21875 -0.734375q1.015625 0 1.671875 0.453125l-0.421875 2.46875q-0.03125 0.25 -0.171875 0.34375q-0.125 0.09375 -0.359375 0.09375q-0.203125 0 -0.546875 -0.09375q-0.34375 -0.09375 -0.921875 -0.09375q-1.015625 0 -1.75 0.578125q-0.734375 0.5625 -1.25 1.65625l0 8.515625l-3.28125 0z" fill-rule="nonzero"/><path fill="#45818e" d="m478.2929 273.26938c5.190277 -12.989502 25.432404 0 0 16.700775c-25.432434 -16.700775 -5.1903076 -29.690277 0 -16.700775z" fill-rule="evenodd"/><path fill="#000000" fill-opacity="0.0" d="m363.08142 188.29378l230.42523 0l0 155.87401l-230.42523 0z" fill-rule="evenodd"/><path fill="#5e696c" d="m420.81686 314.34692q0.296875 0 0.515625 0.234375l1.40625 1.53125q-1.171875 1.453125 -2.890625 2.234375q-1.703125 0.765625 -4.109375 0.765625q-2.140625 0 -3.859375 -0.734375q-1.703125 -0.734375 -2.921875 -2.03125q-1.203125 -1.3125 -1.859375 -3.125q-0.640625 -1.8125 -0.640625 -3.96875q0 -2.171875 0.71875 -3.96875q0.71875 -1.8125 2.015625 -3.109375q1.3125 -1.3125 3.125 -2.03125q1.828125 -0.734375 4.03125 -0.734375q2.140625 0 3.75 0.6875q1.609375 0.6875 2.75 1.8125l-1.203125 1.671875q-0.109375 0.15625 -0.28125 0.28125q-0.15625 0.109375 -0.453125 0.109375q-0.296875 0 -0.625 -0.234375q-0.3125 -0.234375 -0.8125 -0.515625q-0.484375 -0.28125 -1.25 -0.515625q-0.75 -0.25 -1.90625 -0.25q-1.359375 0 -2.5 0.484375q-1.140625 0.46875 -1.96875 1.34375q-0.8125 0.875 -1.28125 2.140625q-0.453125 1.265625 -0.453125 2.828125q0 1.625 0.453125 2.890625q0.46875 1.265625 1.25 2.140625q0.796875 0.859375 1.859375 1.328125q1.0625 0.453125 2.296875 0.453125q0.734375 0 1.328125 -0.078125q0.59375 -0.078125 1.09375 -0.25q0.5 -0.171875 0.9375 -0.4375q0.453125 -0.28125 0.890625 -0.6875q0.140625 -0.109375 0.28125 -0.1875q0.140625 -0.078125 0.3125 -0.078125zm10.279205 -9.34375q1.53125 0 2.78125 0.5q1.25 0.484375 2.125 1.390625q0.875 0.90625 1.359375 2.21875q0.484375 1.296875 0.484375 2.921875q0 1.625 -0.484375 2.9375q-0.484375 1.296875 -1.359375 2.21875q-0.875 0.921875 -2.125 1.421875q-1.25 0.484375 -2.78125 0.484375q-1.53125 0 -2.78125 -0.484375q-1.25 -0.5 -2.140625 -1.421875q-0.890625 -0.921875 -1.375 -2.21875q-0.484375 -1.3125 -0.484375 -2.9375q0 -1.625 0.484375 -2.921875q0.484375 -1.3125 1.375 -2.21875q0.890625 -0.90625 2.140625 -1.390625q1.25 -0.5 2.78125 -0.5zm0 11.5625q1.703125 0 2.515625 -1.140625q0.828125 -1.15625 0.828125 -3.375q0 -2.203125 -0.828125 -3.359375q-0.8125 -1.171875 -2.515625 -1.171875q-1.734375 0 -2.5625 1.171875q-0.8125 1.171875 -0.8125 3.359375q0 2.203125 0.8125 3.359375q0.828125 1.15625 2.5625 1.15625zm9.325897 2.328125l0 -13.671875l2.0 0q0.640625 0 0.84375 0.59375l0.21875 1.015625q0.359375 -0.40625 0.75 -0.734375q0.390625 -0.328125 0.828125 -0.5625q0.453125 -0.25 0.96875 -0.390625q0.515625 -0.140625 1.125 -0.140625q1.296875 0 2.125 0.703125q0.84375 0.703125 1.25 1.859375q0.3125 -0.6875 0.796875 -1.171875q0.484375 -0.484375 1.046875 -0.78125q0.578125 -0.3125 1.21875 -0.453125q0.65625 -0.15625 1.3125 -0.15625q1.125 0 2.0 0.359375q0.890625 0.34375 1.484375 1.015625q0.609375 0.65625 0.921875 1.625q0.3125 0.953125 0.3125 2.1875l0 8.703125l-3.296875 0l0 -8.703125q0 -1.3125 -0.578125 -1.96875q-0.5625 -0.65625 -1.671875 -0.65625q-0.5 0 -0.9375 0.171875q-0.4375 0.171875 -0.765625 0.5q-0.328125 0.328125 -0.515625 0.828125q-0.1875 0.484375 -0.1875 1.125l0 8.703125l-3.296875 0l0 -8.703125q0 -1.375 -0.5625 -2.0q-0.546875 -0.625 -1.625 -0.625q-0.703125 0 -1.328125 0.359375q-0.625 0.34375 -1.15625 0.953125l0 10.015625l-3.28125 0zm22.444458 4.46875l0 -18.140625l2.0 0q0.328125 0 0.546875 0.15625q0.234375 0.140625 0.296875 0.4375l0.265625 1.265625q0.828125 -0.9375 1.890625 -1.515625q1.078125 -0.59375 2.53125 -0.59375q1.109375 0 2.03125 0.46875q0.9375 0.453125 1.609375 1.34375q0.671875 0.890625 1.03125 2.1875q0.375 1.296875 0.375 2.984375q0 1.53125 -0.421875 2.84375q-0.40625 1.296875 -1.171875 2.265625q-0.765625 0.953125 -1.859375 1.5q-1.078125 0.53125 -2.421875 0.53125q-1.171875 0 -1.984375 -0.34375q-0.796875 -0.359375 -1.4375 -1.0l0 5.609375l-3.28125 0zm6.390625 -15.796875q-1.03125 0 -1.765625 0.4375q-0.71875 0.421875 -1.34375 1.21875l0 6.125q0.5625 0.6875 1.21875 0.96875q0.671875 0.265625 1.421875 0.265625q0.75 0 1.359375 -0.265625q0.609375 -0.28125 1.015625 -0.859375q0.421875 -0.578125 0.640625 -1.4375q0.234375 -0.875 0.234375 -2.0625q0 -1.203125 -0.1875 -2.03125q-0.1875 -0.84375 -0.546875 -1.359375q-0.359375 -0.515625 -0.875 -0.75q-0.515625 -0.25 -1.171875 -0.25zm19.386566 11.328125l-1.46875 0q-0.46875 0 -0.734375 -0.140625q-0.265625 -0.140625 -0.40625 -0.5625l-0.296875 -0.96875q-0.515625 0.453125 -1.015625 0.8125q-0.5 0.359375 -1.03125 0.59375q-0.53125 0.234375 -1.140625 0.359375q-0.59375 0.125 -1.328125 0.125q-0.859375 0 -1.59375 -0.234375q-0.734375 -0.234375 -1.265625 -0.703125q-0.515625 -0.46875 -0.8125 -1.15625q-0.296875 -0.703125 -0.296875 -1.609375q0 -0.78125 0.40625 -1.53125q0.40625 -0.75 1.34375 -1.359375q0.953125 -0.609375 2.53125 -1.0q1.578125 -0.40625 3.90625 -0.46875l0 -0.796875q0 -1.375 -0.578125 -2.03125q-0.578125 -0.65625 -1.6875 -0.65625q-0.796875 0 -1.34375 0.1875q-0.53125 0.1875 -0.921875 0.421875q-0.390625 0.234375 -0.734375 0.421875q-0.328125 0.1875 -0.71875 0.1875q-0.328125 0 -0.578125 -0.171875q-0.234375 -0.1875 -0.390625 -0.4375l-0.59375 -1.046875q2.359375 -2.15625 5.6875 -2.15625q1.203125 0 2.140625 0.390625q0.9375 0.390625 1.59375 1.09375q0.65625 0.703125 0.984375 1.671875q0.34375 0.96875 0.34375 2.125l0 8.640625zm-6.390625 -2.046875q0.5 0 0.921875 -0.09375q0.4375 -0.09375 0.8125 -0.28125q0.390625 -0.1875 0.734375 -0.453125q0.359375 -0.28125 0.71875 -0.65625l0 -2.3125q-1.4375 0.078125 -2.40625 0.265625q-0.96875 0.171875 -1.5625 0.453125q-0.578125 0.28125 -0.828125 0.65625q-0.25 0.359375 -0.25 0.796875q0 0.875 0.515625 1.25q0.515625 0.375 1.34375 0.375zm17.751373 -8.96875q-0.125 0.21875 -0.28125 0.3125q-0.140625 0.078125 -0.375 0.078125q-0.234375 0 -0.515625 -0.125q-0.265625 -0.140625 -0.625 -0.296875q-0.359375 -0.171875 -0.828125 -0.296875q-0.453125 -0.140625 -1.078125 -0.140625q-0.96875 0 -1.53125 0.421875q-0.5625 0.40625 -0.5625 1.0625q0 0.4375 0.28125 0.75q0.296875 0.296875 0.765625 0.53125q0.46875 0.21875 1.0625 0.40625q0.609375 0.171875 1.234375 0.390625q0.625 0.203125 1.21875 0.484375q0.609375 0.265625 1.078125 0.6875q0.484375 0.421875 0.765625 1.015625q0.28125 0.578125 0.28125 1.40625q0 0.984375 -0.359375 1.828125q-0.359375 0.828125 -1.0625 1.4375q-0.6875 0.59375 -1.703125 0.9375q-1.015625 0.34375 -2.34375 0.34375q-0.703125 0 -1.375 -0.140625q-0.671875 -0.125 -1.296875 -0.34375q-0.609375 -0.234375 -1.140625 -0.53125q-0.53125 -0.3125 -0.921875 -0.671875l0.75 -1.25q0.15625 -0.234375 0.34375 -0.34375q0.203125 -0.125 0.515625 -0.125q0.3125 0 0.578125 0.171875q0.28125 0.171875 0.640625 0.375q0.359375 0.203125 0.84375 0.375q0.484375 0.171875 1.234375 0.171875q0.578125 0 1.0 -0.140625q0.421875 -0.140625 0.6875 -0.359375q0.28125 -0.234375 0.40625 -0.53125q0.125 -0.296875 0.125 -0.625q0 -0.46875 -0.28125 -0.78125q-0.28125 -0.3125 -0.765625 -0.53125q-0.46875 -0.234375 -1.078125 -0.40625q-0.609375 -0.1875 -1.25 -0.390625q-0.625 -0.21875 -1.234375 -0.5q-0.59375 -0.296875 -1.078125 -0.734375q-0.46875 -0.4375 -0.765625 -1.078125q-0.28125 -0.640625 -0.28125 -1.546875q0 -0.84375 0.328125 -1.59375q0.34375 -0.765625 0.984375 -1.328125q0.65625 -0.5625 1.609375 -0.90625q0.96875 -0.34375 2.25 -0.34375q1.40625 0 2.5625 0.46875q1.15625 0.46875 1.9375 1.234375l-0.75 1.171875zm11.648743 0q-0.125 0.21875 -0.28125 0.3125q-0.140625 0.078125 -0.375 0.078125q-0.234375 0 -0.515625 -0.125q-0.265625 -0.140625 -0.625 -0.296875q-0.359375 -0.171875 -0.828125 -0.296875q-0.453125 -0.140625 -1.078125 -0.140625q-0.96875 0 -1.53125 0.421875q-0.5625 0.40625 -0.5625 1.0625q0 0.4375 0.28125 0.75q0.296875 0.296875 0.765625 0.53125q0.46875 0.21875 1.0625 0.40625q0.609375 0.171875 1.234375 0.390625q0.625 0.203125 1.21875 0.484375q0.609375 0.265625 1.078125 0.6875q0.484375 0.421875 0.7655945 1.015625q0.28125 0.578125 0.28125 1.40625q0 0.984375 -0.359375 1.828125q-0.35934448 0.828125 -1.0624695 1.4375q-0.6875 0.59375 -1.703125 0.9375q-1.015625 0.34375 -2.34375 0.34375q-0.703125 0 -1.375 -0.140625q-0.671875 -0.125 -1.296875 -0.34375q-0.609375 -0.234375 -1.140625 -0.53125q-0.53125 -0.3125 -0.921875 -0.671875l0.75 -1.25q0.15625 -0.234375 0.34375 -0.34375q0.203125 -0.125 0.515625 -0.125q0.3125 0 0.578125 0.171875q0.28125 0.171875 0.640625 0.375q0.359375 0.203125 0.84375 0.375q0.484375 0.171875 1.234375 0.171875q0.578125 0 1.0 -0.140625q0.421875 -0.140625 0.6875 -0.359375q0.28125 -0.234375 0.40625 -0.53125q0.125 -0.296875 0.125 -0.625q0 -0.46875 -0.28125 -0.78125q-0.28125 -0.3125 -0.765625 -0.53125q-0.46875 -0.234375 -1.078125 -0.40625q-0.609375 -0.1875 -1.25 -0.390625q-0.625 -0.21875 -1.234375 -0.5q-0.59375 -0.296875 -1.078125 -0.734375q-0.46875 -0.4375 -0.765625 -1.078125q-0.28125 -0.640625 -0.28125 -1.546875q0 -0.84375 0.328125 -1.59375q0.34375 -0.765625 0.984375 -1.328125q0.65625 -0.5625 1.609375 -0.90625q0.96875 -0.34375 2.25 -0.34375q1.40625 0 2.5625 0.46875q1.15625 0.46875 1.9374695 1.234375l-0.7499695 1.171875zm7.039337 -2.65625l0 13.671875l-3.296875 0l0 -13.671875l3.296875 0zm0.484375 -3.984375q0 0.421875 -0.171875 0.796875q-0.171875 0.375 -0.453125 0.65625q-0.28125 0.28125 -0.671875 0.453125q-0.390625 0.15625 -0.828125 0.15625q-0.421875 0 -0.8125 -0.15625q-0.375 -0.171875 -0.65625 -0.453125q-0.28125 -0.28125 -0.453125 -0.65625q-0.15625 -0.375 -0.15625 -0.796875q0 -0.4375 0.15625 -0.828125q0.171875 -0.390625 0.453125 -0.671875q0.28125 -0.28125 0.65625 -0.4375q0.390625 -0.171875 0.8125 -0.171875q0.4375 0 0.828125 0.171875q0.390625 0.15625 0.671875 0.4375q0.28125 0.28125 0.453125 0.671875q0.171875 0.390625 0.171875 0.828125zm9.067566 3.765625q1.53125 0 2.78125 0.5q1.25 0.484375 2.125 1.390625q0.875 0.90625 1.359375 2.21875q0.484375 1.296875 0.484375 2.921875q0 1.625 -0.484375 2.9375q-0.484375 1.296875 -1.359375 2.21875q-0.875 0.921875 -2.125 1.421875q-1.25 0.484375 -2.78125 0.484375q-1.53125 0 -2.78125 -0.484375q-1.25 -0.5 -2.140625 -1.421875q-0.890625 -0.921875 -1.375 -2.21875q-0.484375 -1.3125 -0.484375 -2.9375q0 -1.625 0.484375 -2.921875q0.484375 -1.3125 1.375 -2.21875q0.890625 -0.90625 2.140625 -1.390625q1.25 -0.5 2.78125 -0.5zm0 11.5625q1.703125 0 2.515625 -1.140625q0.828125 -1.15625 0.828125 -3.375q0 -2.203125 -0.828125 -3.359375q-0.8125 -1.171875 -2.515625 -1.171875q-1.734375 0 -2.5625 1.171875q-0.8125 1.171875 -0.8125 3.359375q0 2.203125 0.8125 3.359375q0.828125 1.15625 2.5625 1.15625zm9.325928 2.328125l0 -13.671875l2.0 0q0.640625 0 0.84375 0.59375l0.234375 1.078125q0.40625 -0.421875 0.859375 -0.765625q0.46875 -0.34375 0.984375 -0.59375q0.515625 -0.265625 1.09375 -0.390625q0.59375 -0.140625 1.28125 -0.140625q1.125 0 1.984375 0.390625q0.875 0.375 1.453125 1.0625q0.578125 0.6875 0.875 1.640625q0.296875 0.953125 0.296875 2.09375l0 8.703125l-3.296875 0l0 -8.703125q0 -1.25 -0.578125 -1.9375q-0.578125 -0.6875 -1.734375 -0.6875q-0.859375 0 -1.609375 0.390625q-0.734375 0.375 -1.40625 1.046875l0 9.890625l-3.28125 0z" fill-rule="nonzero"/><path fill="#000000" fill-opacity="0.0" d="m608.7589 353.84625l166.67712 0l0 81.29135l-166.67712 0z" fill-rule="evenodd"/><path fill="#5e696c" d="m648.9847 378.80563q0 2.125 -0.71875 3.90625q-0.703125 1.765625 -1.984375 3.046875q-1.265625 1.28125 -3.078125 1.984375q-1.796875 0.703125 -3.984375 0.703125l-7.34375 0l0 -19.265625l7.34375 0q2.1875 0 3.984375 0.71875q1.8125 0.703125 3.078125 1.984375q1.28125 1.265625 1.984375 3.046875q0.71875 1.765625 0.71875 3.875zm-3.671875 0q0 -1.578125 -0.421875 -2.828125q-0.421875 -1.265625 -1.21875 -2.140625q-0.78125 -0.875 -1.90625 -1.34375q-1.125 -0.46875 -2.546875 -0.46875l-3.734375 0l0 13.5625l3.734375 0q1.421875 0 2.546875 -0.453125q1.125 -0.46875 1.90625 -1.34375q0.796875 -0.875 1.21875 -2.125q0.421875 -1.265625 0.421875 -2.859375zm11.941101 -4.25q1.296875 0 2.375 0.421875q1.09375 0.40625 1.875 1.203125q0.796875 0.796875 1.234375 1.953125q0.4375 1.140625 0.4375 2.625q0 0.375 -0.03125 0.625q-0.03125 0.234375 -0.125 0.375q-0.078125 0.140625 -0.234375 0.203125q-0.140625 0.0625 -0.375 0.0625l-8.4375 0q0.140625 2.109375 1.125 3.09375q0.984375 0.984375 2.609375 0.984375q0.796875 0 1.375 -0.1875q0.59375 -0.1875 1.015625 -0.40625q0.4375 -0.234375 0.765625 -0.421875q0.328125 -0.1875 0.640625 -0.1875q0.1875 0 0.328125 0.078125q0.15625 0.078125 0.265625 0.234375l0.953125 1.1875q-0.546875 0.640625 -1.234375 1.078125q-0.671875 0.4375 -1.40625 0.703125q-0.734375 0.25 -1.5 0.359375q-0.765625 0.109375 -1.484375 0.109375q-1.4375 0 -2.671875 -0.46875q-1.21875 -0.484375 -2.125 -1.40625q-0.90625 -0.921875 -1.421875 -2.28125q-0.515625 -1.375 -0.515625 -3.171875q0 -1.40625 0.453125 -2.640625q0.453125 -1.234375 1.296875 -2.140625q0.84375 -0.921875 2.0625 -1.453125q1.21875 -0.53125 2.75 -0.53125zm0.078125 2.359375q-1.453125 0 -2.265625 0.8125q-0.8125 0.8125 -1.03125 2.3125l6.1875 0q0 -0.640625 -0.1875 -1.203125q-0.171875 -0.578125 -0.53125 -1.0q-0.359375 -0.421875 -0.90625 -0.671875q-0.546875 -0.25 -1.265625 -0.25zm14.932739 11.53125l-2.984375 0l-5.4375 -13.671875l2.734375 0q0.359375 0 0.59375 0.171875q0.25 0.171875 0.34375 0.4375l2.640625 7.3125q0.234375 0.625 0.375 1.25q0.15625 0.609375 0.28125 1.21875q0.125 -0.609375 0.265625 -1.21875q0.15625 -0.625 0.40625 -1.25l2.703125 -7.3125q0.09375 -0.265625 0.328125 -0.4375q0.25 -0.171875 0.578125 -0.171875l2.59375 0l-5.421875 13.671875zm12.577881 -13.890625q1.296875 0 2.375 0.421875q1.09375 0.40625 1.875 1.203125q0.796875 0.796875 1.234375 1.953125q0.4375 1.140625 0.4375 2.625q0 0.375 -0.03125 0.625q-0.03125 0.234375 -0.125 0.375q-0.078125 0.140625 -0.234375 0.203125q-0.140625 0.0625 -0.375 0.0625l-8.4375 0q0.140625 2.109375 1.125 3.09375q0.984375 0.984375 2.609375 0.984375q0.796875 0 1.375 -0.1875q0.59375 -0.1875 1.015625 -0.40625q0.4375 -0.234375 0.765625 -0.421875q0.328125 -0.1875 0.640625 -0.1875q0.1875 0 0.328125 0.078125q0.15625 0.078125 0.265625 0.234375l0.953125 1.1875q-0.546875 0.640625 -1.234375 1.078125q-0.671875 0.4375 -1.40625 0.703125q-0.734375 0.25 -1.5 0.359375q-0.765625 0.109375 -1.484375 0.109375q-1.4375 0 -2.671875 -0.46875q-1.21875 -0.484375 -2.125 -1.40625q-0.90625 -0.921875 -1.421875 -2.28125q-0.515625 -1.375 -0.515625 -3.171875q0 -1.40625 0.453125 -2.640625q0.453125 -1.234375 1.296875 -2.140625q0.84375 -0.921875 2.0625 -1.453125q1.21875 -0.53125 2.75 -0.53125zm0.078125 2.359375q-1.453125 0 -2.265625 0.8125q-0.8125 0.8125 -1.03125 2.3125l6.1875 0q0 -0.640625 -0.1875 -1.203125q-0.171875 -0.578125 -0.53125 -1.0q-0.359375 -0.421875 -0.90625 -0.671875q-0.546875 -0.25 -1.265625 -0.25zm12.028992 -8.28125l0 19.8125l-3.296875 0l0 -19.8125l3.296875 0zm9.551941 5.921875q1.53125 0 2.78125 0.5q1.25 0.484375 2.125 1.390625q0.875 0.90625 1.359375 2.21875q0.484375 1.296875 0.484375 2.921875q0 1.625 -0.484375 2.9375q-0.484375 1.296875 -1.359375 2.21875q-0.875 0.921875 -2.125 1.421875q-1.25 0.484375 -2.78125 0.484375q-1.53125 0 -2.78125 -0.484375q-1.25 -0.5 -2.140625 -1.421875q-0.890625 -0.921875 -1.375 -2.21875q-0.484375 -1.3125 -0.484375 -2.9375q0 -1.625 0.484375 -2.921875q0.484375 -1.3125 1.375 -2.21875q0.890625 -0.90625 2.140625 -1.390625q1.25 -0.5 2.78125 -0.5zm0 11.5625q1.703125 0 2.515625 -1.140625q0.828125 -1.15625 0.828125 -3.375q0 -2.203125 -0.828125 -3.359375q-0.8125 -1.171875 -2.515625 -1.171875q-1.734375 0 -2.5625 1.171875q-0.8125 1.171875 -0.8125 3.359375q0 2.203125 0.8125 3.359375q0.828125 1.15625 2.5625 1.15625zm9.325867 6.796875l0 -18.140625l2.0 0q0.328125 0 0.546875 0.15625q0.234375 0.140625 0.296875 0.4375l0.265625 1.265625q0.828125 -0.9375 1.890625 -1.515625q1.078125 -0.59375 2.53125 -0.59375q1.109375 0 2.03125 0.46875q0.9375 0.453125 1.609375 1.34375q0.671875 0.890625 1.03125 2.1875q0.375 1.296875 0.375 2.984375q0 1.53125 -0.421875 2.84375q-0.40625 1.296875 -1.171875 2.265625q-0.765625 0.953125 -1.859375 1.5q-1.078125 0.53125 -2.421875 0.53125q-1.171875 0 -1.984375 -0.34375q-0.796875 -0.359375 -1.4375 -1.0l0 5.609375l-3.28125 0zm6.390625 -15.796875q-1.03125 0 -1.765625 0.4375q-0.71875 0.421875 -1.34375 1.21875l0 6.125q0.5625 0.6875 1.21875 0.96875q0.671875 0.265625 1.421875 0.265625q0.75 0 1.359375 -0.265625q0.609375 -0.28125 1.015625 -0.859375q0.421875 -0.578125 0.640625 -1.4375q0.234375 -0.875 0.234375 -2.0625q0 -1.203125 -0.1875 -2.03125q-0.1875 -0.84375 -0.546875 -1.359375q-0.359375 -0.515625 -0.875 -0.75q-0.515625 -0.25 -1.171875 -0.25zm14.324097 -2.5625q1.296875 0 2.375 0.421875q1.09375 0.40625 1.875 1.203125q0.796875 0.796875 1.234375 1.953125q0.4375 1.140625 0.4375 2.625q0 0.375 -0.03125 0.625q-0.03125 0.234375 -0.125 0.375q-0.078125 0.140625 -0.234375 0.203125q-0.140625 0.0625 -0.375 0.0625l-8.4375 0q0.140625 2.109375 1.125 3.09375q0.984375 0.984375 2.609375 0.984375q0.796875 0 1.375 -0.1875q0.59375 -0.1875 1.015625 -0.40625q0.4375 -0.234375 0.765625 -0.421875q0.328125 -0.1875 0.640625 -0.1875q0.1875 0 0.328125 0.078125q0.15625 0.078125 0.265625 0.234375l0.953125 1.1875q-0.546875 0.640625 -1.234375 1.078125q-0.671875 0.4375 -1.40625 0.703125q-0.734375 0.25 -1.5 0.359375q-0.765625 0.109375 -1.484375 0.109375q-1.4375 0 -2.671875 -0.46875q-1.21875 -0.484375 -2.125 -1.40625q-0.90625 -0.921875 -1.421875 -2.28125q-0.515625 -1.375 -0.515625 -3.171875q0 -1.40625 0.453125 -2.640625q0.453125 -1.234375 1.296875 -2.140625q0.84375 -0.921875 2.0625 -1.453125q1.21875 -0.53125 2.75 -0.53125zm0.078125 2.359375q-1.453125 0 -2.265625 0.8125q-0.8125 0.8125 -1.03125 2.3125l6.1875 0q0 -0.640625 -0.1875 -1.203125q-0.171875 -0.578125 -0.53125 -1.0q-0.359375 -0.421875 -0.90625 -0.671875q-0.546875 -0.25 -1.265625 -0.25zm8.528931 11.53125l0 -13.671875l1.921875 0q0.515625 0 0.703125 0.1875q0.203125 0.1875 0.28125 0.640625l0.1875 1.640625q0.734375 -1.265625 1.71875 -1.984375q1.0 -0.734375 2.21875 -0.734375q1.015625 0 1.671875 0.453125l-0.421875 2.46875q-0.03125 0.25 -0.171875 0.34375q-0.125 0.09375 -0.359375 0.09375q-0.203125 0 -0.546875 -0.09375q-0.34375 -0.09375 -0.921875 -0.09375q-1.015625 0 -1.75 0.578125q-0.734375 0.5625 -1.25 1.65625l0 8.515625l-3.28125 0z" fill-rule="nonzero"/></g></svg>